<svg width="61" height="60" viewBox="0 0 61 60" fill="none" xmlns="http://www.w3.org/2000/svg">
<path d="M28.4188 0.276962C27.6345 0.396549 26.9525 0.533188 26.9184 0.584419C26.8673 0.618599 26.9184 1.14811 27.0208 1.74604C27.1231 2.34383 27.2254 2.97587 27.2424 3.16382C27.2765 3.42004 27.0548 3.53963 26.0831 3.79586C23.8325 4.41078 24.0712 4.49619 23.6109 3.02718C23.3892 2.30973 23.1335 1.72892 23.0483 1.72892C22.5709 1.72892 19.5191 2.80506 19.5191 2.97588C19.5191 3.09547 19.7066 3.71045 19.9453 4.3766C20.1669 5.02577 20.3716 5.65773 20.3716 5.76027C20.3716 5.91396 17.9676 7.53681 17.7289 7.53681C17.6777 7.53681 17.1322 6.99018 16.5184 6.34108C15.8876 5.67486 15.342 5.14528 15.2738 5.14528C15.2226 5.14528 14.5407 5.69191 13.7564 6.35814L12.3414 7.57092L13.4837 8.85213L14.626 10.1161L13.4666 11.2948L12.3072 12.4564L11.1479 11.534C10.517 11.0215 9.9544 10.6115 9.92035 10.6115C9.88623 10.6115 9.28949 11.2778 8.60753 12.0806C7.56752 13.3105 7.39706 13.6009 7.60164 13.7546C8.91439 14.7454 9.97146 15.5995 9.97146 15.6678C9.97146 15.7532 8.62459 18.2984 8.48818 18.4521C8.45406 18.5034 7.78915 18.3155 6.98785 18.0421C6.20358 17.7689 5.52161 17.581 5.48752 17.6322C5.19768 17.9567 4.14062 21.0656 4.27702 21.1852C4.36226 21.2706 4.97603 21.5098 5.62391 21.7148C6.28883 21.9198 6.86851 22.1419 6.91965 22.2101C7.039 22.3127 6.39113 25.1995 6.22063 25.3532C6.16948 25.4045 5.52161 25.3362 4.7885 25.1995C4.03832 25.0799 3.4075 24.9945 3.3734 25.0287C3.3393 25.0458 3.13471 25.8999 2.91307 26.9077C2.64028 28.1888 2.57209 28.7697 2.70848 28.8038C2.81078 28.8379 3.4416 28.9575 4.08948 29.06C5.93079 29.3675 5.87965 29.3333 5.87965 30.102V30.7682H9.54525H13.2108V29.7774C13.2279 25.934 14.7794 21.5098 17.2174 18.2984C18.0358 17.2393 20.0646 15.1382 20.525 14.8991C20.7807 14.7624 21.0876 15.1382 22.6902 17.5639C23.7132 19.1184 24.7021 20.6557 24.8725 20.9632L25.1965 21.5098L24.4122 22.4151C23.4404 23.5426 22.5709 25.1482 22.0594 26.8394C21.7184 27.8984 21.6502 28.4963 21.6673 30.2557C21.6673 31.4344 21.7525 32.6985 21.8718 33.0743C22.0253 33.5868 22.0253 33.7746 21.8549 33.8771C21.7525 33.9454 16.8253 35.6194 10.9262 37.601C5.01013 39.5654 0.116992 41.2565 0.0487952 41.3249C-0.019402 41.3932 4.90784 39.7874 11.0285 37.7376C17.1322 35.6878 22.1447 34.0309 22.1617 34.065C22.1788 34.0821 22.3152 34.4579 22.4686 34.8849C22.6391 35.312 23.0312 36.0807 23.3551 36.5931C24.4975 38.4038 24.8044 37.7889 20.6102 42.1106C17.0981 45.749 16.7912 46.0224 14.9328 47.1498L12.9551 48.3455L12.5459 50.4466C12.3243 51.6082 12.0685 52.6843 11.9833 52.8381C11.898 53.0089 11.881 53.1455 11.9492 53.1455C12.0174 53.1455 13.0574 52.6331 14.285 51.984L16.5013 50.8395L17.2856 49.1996C18.0529 47.5939 18.1722 47.4402 21.7866 43.7334C23.8325 41.6323 25.6227 39.8387 25.7591 39.7704C25.9125 39.685 26.2024 39.7874 26.5605 40.0437C27.7539 40.9661 29.5441 41.6665 31.3342 41.9569C31.8627 42.0423 31.965 42.1277 31.965 42.4693C31.965 42.7085 31.8627 42.8964 31.7604 42.8964C31.3172 42.8793 29.2713 42.5547 28.9985 42.4523C28.7598 42.3668 28.7257 42.5206 28.7257 43.8017C28.7257 45.0999 28.7598 45.2708 29.0496 45.3733C29.3224 45.4587 29.3736 45.5782 29.2713 46.1078C29.0667 47.3377 29.1007 47.406 29.8339 47.5256C30.209 47.5939 30.567 47.611 30.6181 47.5768C30.6864 47.5427 30.7716 47.1327 30.8398 46.6544C30.9421 45.8857 30.9932 45.8003 31.3683 45.8003C31.7775 45.8003 31.7946 45.8516 31.7946 46.7398V47.6793H32.647H33.4995V46.7398C33.4995 45.8857 33.5336 45.8003 33.9257 45.6978C34.5907 45.527 34.8123 45.7149 34.9317 46.5519C35.051 47.3035 35.085 47.3377 35.5966 47.3377C36.466 47.3377 36.5683 47.1839 36.3638 46.2444C36.1933 45.3903 36.2615 45.1853 36.79 45.0829C37.0287 45.0487 37.1821 45.2366 37.4208 45.8686C37.6083 46.3128 37.7789 46.7227 37.8129 46.7569C37.8812 46.8252 39.1257 46.347 39.1257 46.2444C39.1257 46.2274 38.9723 45.7662 38.8018 45.2366C38.5631 44.5533 38.529 44.263 38.6654 44.2117C38.9041 44.1263 37.9834 42.2302 37.6595 42.0936C37.5402 42.0594 36.9264 42.179 36.2956 42.3668C35.6477 42.5377 34.8634 42.7427 34.5736 42.7939C34.045 42.8793 34.011 42.8451 34.011 42.4181C34.011 41.991 34.0962 41.9398 35.2215 41.6665C35.9034 41.4957 36.7389 41.2223 37.0969 41.0174L37.7618 40.6757L39.7054 43.648C42.3139 47.6281 42.1605 47.2352 41.3081 47.6793C39.7565 48.4822 36.2273 49.5583 35.085 49.5583H34.5224V53.6238V57.6893L35.8523 57.5356C36.5683 57.4502 37.4208 57.3648 37.7448 57.3648C38.3756 57.3306 38.3415 57.2794 38.8529 59.4829L38.9552 59.9442L40.7796 59.6025C41.7854 59.4317 42.6379 59.2438 42.689 59.2096C42.7232 59.1584 42.6209 58.4751 42.4504 57.6552C42.2799 56.8182 42.2117 56.1349 42.2969 56.0666C42.3822 55.9982 43.03 55.6566 43.7461 55.332L45.0589 54.7171L46.0478 56.0666C46.5933 56.8011 47.1048 57.416 47.1901 57.416C47.5311 57.416 50.3612 55.3149 50.2589 55.1441C50.1907 55.0416 49.7815 54.4609 49.3212 53.863C48.8779 53.248 48.5028 52.7014 48.5028 52.6502C48.5028 52.5818 49.0484 52.0864 49.7134 51.5399L50.9238 50.5491L52.015 51.6253L53.1232 52.6843L53.8393 52.0182C54.2314 51.6594 54.8793 51.0445 55.2885 50.6687L56.0045 50.0024L54.8111 48.7897L53.6177 47.5768L54.4701 46.3982C54.9304 45.749 55.3396 45.1512 55.3737 45.0658C55.3907 44.9804 56.0216 45.1853 56.7547 45.527C57.4878 45.8686 58.1869 46.142 58.2891 46.142C58.4426 46.142 60.0963 43.1013 60.0963 42.8281C60.0963 42.7939 59.4825 42.4693 58.7324 42.1106C57.9823 41.769 57.3685 41.4273 57.3685 41.3761C57.3685 41.3249 57.5901 40.6928 57.8629 39.9924C58.1357 39.2921 58.3914 38.5063 58.4596 38.233L58.5619 37.7718H54.5553H50.5487L50.293 38.3867C49.935 39.2579 48.9121 40.9319 48.0425 42.0764C47.2582 43.1185 45.1271 45.2879 44.8884 45.2879C44.8031 45.2879 44.3087 44.6217 43.7802 43.8017C43.2517 42.9647 42.2969 41.5128 41.649 40.5391C41.0182 39.5825 40.4897 38.7455 40.4897 38.6943C40.4897 38.6601 40.7965 38.2159 41.1887 37.7376C42.3822 36.2173 43.3369 33.9626 43.6268 31.9127L43.7461 31.1098H44.5133C45.1782 31.1098 45.2635 31.144 45.2635 31.5028C45.2635 32.7155 44.0871 36.0465 43.2175 37.2593C43.03 37.5156 42.8766 37.7889 42.8766 37.8402C42.8766 37.8914 43.2346 37.9426 43.6949 37.9426C44.2405 37.9426 44.8543 38.1134 45.5704 38.4551C46.1671 38.7455 46.7127 38.9334 46.7979 38.8821C46.9514 38.7797 47.3776 37.7718 47.2924 37.7034C47.2582 37.6864 46.8661 37.4472 46.4058 37.191C45.7068 36.7981 45.6215 36.6957 45.775 36.4053C45.9966 35.9953 46.0478 35.9953 46.9684 36.3198C47.9061 36.6444 47.9061 36.6444 48.1277 36.149C48.4517 35.4316 48.3664 35.2778 47.5311 34.9533C46.474 34.5604 46.4228 34.4921 46.5592 33.9454C46.6615 33.4842 46.6786 33.4842 47.7356 33.5868C48.3153 33.655 48.8438 33.638 48.895 33.5696C48.9461 33.4842 49.0143 33.1426 49.0484 32.8181L49.0996 32.2202L48.0766 32.0494C47.2071 31.8956 47.0366 31.8102 47.0025 31.4856C46.9514 31.1269 47.0025 31.1098 48.0596 31.1098H49.1848V30.3411V29.5725H48.0766H46.9684V28.9917C46.9684 28.3425 47.0195 28.3084 48.2983 28.1205L49.0484 28.0009L48.929 27.3689C48.8609 27.0273 48.7586 26.7027 48.7074 26.6344C48.6392 26.5831 48.1789 26.6003 47.6845 26.7027C46.9343 26.8565 46.7297 26.8394 46.6104 26.6515C46.3376 26.2073 46.4569 26.0536 47.4117 25.729C47.9232 25.5582 48.3835 25.3703 48.4005 25.319C48.4347 25.2678 48.3494 24.9262 48.213 24.5845L47.9573 23.9696L47.0196 24.2941C46.4911 24.465 46.0478 24.6017 46.0307 24.5845C45.9455 24.3967 45.6045 23.5596 45.6045 23.5084C45.6045 23.4742 46.0307 23.2009 46.5592 22.9105C47.0707 22.6031 47.5481 22.2614 47.5992 22.1418C47.7015 21.8685 47.173 21.0315 46.9002 21.0315C46.7979 21.0486 46.3376 21.3048 45.8602 21.6294C45.0078 22.2101 45.0078 22.2101 44.735 21.8685C44.4792 21.5269 44.4621 21.5269 43.7461 22.176L43.013 22.8251L43.4392 23.4742C44.07 24.3967 44.8884 26.6173 45.1271 28.018C45.2465 28.6843 45.2976 29.265 45.2465 29.2992C45.1953 29.3504 44.8543 29.4358 44.4621 29.5042L43.7631 29.6066L43.6438 28.7867C43.4562 27.403 42.8936 25.6266 42.1946 24.3454L41.5467 23.1326L43.7972 21.2536C50.3953 15.7019 52.9527 13.5667 53.9586 12.7638L55.0668 11.8585L56.2603 11.9781C56.9252 12.0464 57.4537 12.0806 57.4708 12.0806C57.6924 11.8414 60.9488 6.30691 60.9488 6.1702C60.9488 5.93109 61.2045 5.87986 57.3173 7.02436L54.1462 7.96386L54.0609 8.73254C54.0098 9.15959 53.9245 9.92827 53.8563 10.4407L53.7369 11.3802L47.2582 16.7781L40.7625 22.1931L39.7225 21.2536C38.5802 20.2115 36.5343 19.1184 35.1021 18.7938C34.2156 18.5888 34.1814 18.5717 34.1814 18.008C34.1814 17.376 34.1133 17.393 35.7159 17.803C36.0398 17.8884 36.3638 17.9567 36.449 17.9567C36.5172 17.9567 36.5683 17.3418 36.5683 16.5731C36.5683 15.309 36.5343 15.1895 36.2103 15.104C35.8864 15.0186 35.8693 14.9162 35.9717 14.1133L36.074 13.208L35.3749 13.0884C34.9828 13.0201 34.6418 13.003 34.5907 13.0542C34.5565 13.0884 34.4543 13.4642 34.386 13.8742C34.3179 14.3012 34.1644 14.6258 34.045 14.6087C33.9427 14.5916 33.7211 14.5745 33.5847 14.5575C33.3972 14.5404 33.329 14.3183 33.329 13.6863V12.8322H32.5618H31.7946V13.6863C31.7946 14.3867 31.7434 14.5404 31.5047 14.5404C31.3342 14.5404 31.0274 14.5916 30.8227 14.6429C30.4817 14.7283 30.4306 14.66 30.3283 14.0621C30.1749 13.0884 30.0726 13.003 29.3394 13.1226L28.6916 13.225L28.8109 14.1133C28.9132 14.9504 28.8962 15.0186 28.5211 15.1212C27.9244 15.2749 27.9244 15.2749 27.7028 14.455C27.4641 13.6009 27.4299 13.5838 26.5945 13.9254L26.0148 14.1817L26.2535 14.7795C26.3899 15.104 26.5093 15.5482 26.5093 15.7532C26.5093 16.0435 27.2594 17.393 27.805 18.0934C27.8221 18.1275 28.5381 18.008 29.3736 17.803C31.3342 17.3418 31.3172 17.3418 31.249 17.9739C31.1978 18.4863 31.1297 18.5375 29.8339 18.9304C29.0837 19.1525 28.3506 19.3746 28.1971 19.4258C27.9926 19.4942 27.4299 18.7767 25.9978 16.556C24.9408 14.9332 23.9689 13.43 23.8325 13.225C23.5938 12.8664 23.6279 12.8322 24.5657 12.4051C26.765 11.3973 30.0385 10.6115 32.1014 10.6115H32.8175V6.76813V2.92465H31.9991H31.1637L30.9421 1.47269C30.6864 -0.201313 30.891 -0.0988541 28.4188 0.276962ZM34.1133 23.2692C37.8982 23.9696 40.4897 27.6252 39.8589 31.3832C38.87 37.1739 31.7093 39.4288 27.5834 35.2437C23.7132 31.2978 25.5374 24.7895 30.9421 23.3205C31.9139 23.0472 32.8346 23.0301 34.1133 23.2692Z" fill="#8ECAE6"/>
<path d="M26.9184 0.58442C26.8673 0.618599 26.9184 1.1481 27.0208 1.74604C27.1231 2.34383 27.2254 2.97587 27.2424 3.16382C27.2765 3.42004 27.0548 3.53963 26.0831 3.79586C23.8325 4.41078 24.0712 4.49619 23.6109 3.02718C23.3892 2.30973 23.1335 1.72892 23.0483 1.72892C22.5709 1.72892 19.5191 2.80506 19.5191 2.97588C19.5191 3.09547 19.7066 3.71045 19.9453 4.3766C20.1669 5.02577 20.3716 5.65774 20.3716 5.76027C20.3716 5.91396 17.9676 7.53681 17.7289 7.53681C17.6777 7.53681 17.1322 6.99018 16.5184 6.34108C15.8876 5.67486 15.342 5.14528 15.2738 5.14528C15.2226 5.14528 14.5407 5.69191 13.7564 6.35813L12.3414 7.57092L13.4837 8.85213L14.626 10.1161L13.4666 11.2948L12.3072 12.4564L11.1479 11.534C10.517 11.0215 9.9544 10.6115 9.92035 10.6115C9.88623 10.6115 9.28949 11.2778 8.60753 12.0806C7.56752 13.3105 7.39706 13.6009 7.60164 13.7546C8.91439 14.7454 9.97146 15.5995 9.97146 15.6678C9.97146 15.7532 8.62459 18.2984 8.48818 18.4521C8.45406 18.5034 7.78915 18.3155 6.98785 18.0421C6.20358 17.7689 5.52161 17.581 5.48752 17.6322C5.19768 17.9567 4.14062 21.0656 4.27702 21.1852C4.36226 21.2706 4.97603 21.5098 5.62391 21.7148C6.28883 21.9198 6.86851 22.1419 6.91965 22.2101C7.039 22.3127 6.39113 25.1995 6.22063 25.3532C6.16948 25.4045 5.52161 25.3362 4.7885 25.1995C4.03832 25.0799 3.4075 24.9945 3.3734 25.0287C3.3393 25.0458 3.13471 25.8999 2.91307 26.9077C2.64028 28.1888 2.57209 28.7697 2.70848 28.8038C2.81078 28.8379 3.4416 28.9575 4.08948 29.06C5.93079 29.3675 5.87965 29.3333 5.87965 30.102V30.7682H9.54525H13.2108V29.7774C13.2279 25.934 14.7794 21.5098 17.2174 18.2984C18.0358 17.2394 20.0646 15.1382 20.525 14.8991C20.7807 14.7624 21.0876 15.1382 22.6902 17.5639C23.7132 19.1184 24.7021 20.6557 24.8725 20.9632L25.1965 21.5098L24.4122 22.4151C23.4404 23.5426 22.5709 25.1482 22.0594 26.8394C21.7184 27.8984 21.6502 28.4963 21.6673 30.2557C21.6673 31.4344 21.7525 32.6985 21.8718 33.0743C22.0253 33.5868 22.0253 33.7746 21.8549 33.8771C21.7525 33.9454 16.8253 35.6194 10.9262 37.601C5.01013 39.5654 0.116992 41.2565 0.0487952 41.3249C-0.019402 41.3932 4.90784 39.7874 11.0285 37.7376C17.1322 35.6878 22.1447 34.0309 22.1617 34.065C22.1788 34.0821 22.3152 34.4579 22.4686 34.8849C22.6391 35.312 23.0312 36.0807 23.3551 36.5931C24.4975 38.4038 24.8044 37.7889 20.6102 42.1106C17.0981 45.749 16.7912 46.0224 14.9328 47.1498L12.9551 48.3455L12.5459 50.4466C12.3243 51.6082 12.0685 52.6843 11.9833 52.8381C11.898 53.0089 11.881 53.1455 11.9492 53.1455C12.0174 53.1455 13.0574 52.6331 14.285 51.984L16.5013 50.8395L17.2856 49.1997C18.0529 47.5939 18.1722 47.4402 21.7866 43.7334C23.8325 41.6323 25.6227 39.8387 25.7591 39.7704C25.9125 39.685 26.2024 39.7874 26.5605 40.0437C27.7539 40.9661 29.5441 41.6665 31.3342 41.9569C31.8627 42.0423 31.965 42.1277 31.965 42.4693C31.965 42.7085 31.8627 42.8964 31.7604 42.8964C31.3172 42.8793 29.2713 42.5547 28.9985 42.4523C28.7598 42.3668 28.7257 42.5206 28.7257 43.8017C28.7257 45.0999 28.7598 45.2708 29.0496 45.3733C29.3224 45.4587 29.3736 45.5782 29.2713 46.1078C29.0667 47.3377 29.1007 47.406 29.8339 47.5256C30.209 47.5939 30.567 47.611 30.6181 47.5768C30.6864 47.5427 30.7716 47.1327 30.8398 46.6544C30.9421 45.8857 30.9932 45.8003 31.3683 45.8003C31.7775 45.8003 31.7946 45.8516 31.7946 46.7398V47.6793H32.647H33.4995V46.7398C33.4995 45.8857 33.5336 45.8003 33.9257 45.6978C34.5907 45.527 34.8123 45.7149 34.9317 46.5519C35.051 47.3035 35.085 47.3377 35.5966 47.3377C36.466 47.3377 36.5683 47.1839 36.3638 46.2444C36.1933 45.3903 36.2615 45.1853 36.79 45.0829C37.0287 45.0487 37.1821 45.2366 37.4208 45.8686C37.6083 46.3128 37.7789 46.7227 37.8129 46.7569C37.8812 46.8252 39.1257 46.347 39.1257 46.2444C39.1257 46.2274 38.9723 45.7662 38.8018 45.2366C38.5631 44.5533 38.529 44.263 38.6654 44.2117C38.9041 44.1263 37.9834 42.2302 37.6595 42.0936C37.5402 42.0594 36.9264 42.179 36.2956 42.3668C35.6477 42.5377 34.8634 42.7427 34.5736 42.7939C34.045 42.8793 34.011 42.8451 34.011 42.4181C34.011 41.991 34.0962 41.9398 35.2215 41.6665C35.9034 41.4957 36.7389 41.2223 37.0969 41.0174L37.7618 40.6757L39.7054 43.648C42.3139 47.6281 42.1605 47.2352 41.3081 47.6793C39.7565 48.4822 36.2273 49.5583 35.085 49.5583H34.5224V53.6238V57.6893L35.8523 57.5356C36.5683 57.4502 37.4208 57.3648 37.7448 57.3648C38.3756 57.3306 38.3415 57.2794 38.8529 59.4829L38.9552 59.9442L40.7796 59.6025C41.7854 59.4317 42.6379 59.2438 42.689 59.2096C42.7232 59.1584 42.6209 58.4751 42.4504 57.6552C42.2799 56.8182 42.2117 56.1349 42.2969 56.0666C42.3822 55.9982 43.03 55.6566 43.7461 55.332L45.0589 54.7171L46.0478 56.0666C46.5933 56.8011 47.1048 57.416 47.1901 57.416C47.5311 57.416 50.3612 55.3149 50.2589 55.1441C50.1907 55.0416 49.7815 54.4609 49.3212 53.863C48.8779 53.248 48.5028 52.7014 48.5028 52.6502C48.5028 52.5818 49.0484 52.0864 49.7134 51.5399L50.9238 50.5491L52.015 51.6253L53.1232 52.6843L53.8393 52.0182C54.2314 51.6594 54.8793 51.0445 55.2885 50.6687L56.0045 50.0024L54.8111 48.7897L53.6177 47.5768L54.4701 46.3982C54.9304 45.749 55.3396 45.1512 55.3737 45.0658C55.3907 44.9804 56.0216 45.1853 56.7547 45.527C57.4878 45.8686 58.1869 46.142 58.2891 46.142C58.4426 46.142 60.0963 43.1013 60.0963 42.8281C60.0963 42.7939 59.4825 42.4693 58.7324 42.1106C57.9823 41.769 57.3685 41.4273 57.3685 41.3761C57.3685 41.3249 57.5901 40.6928 57.8629 39.9924C58.1357 39.2921 58.3914 38.5063 58.4596 38.233L58.5619 37.7718H54.5553H50.5487L50.2931 38.3867C49.935 39.2579 48.9121 40.9319 48.0425 42.0764C47.2582 43.1185 45.1271 45.2879 44.8884 45.2879C44.8031 45.2879 44.3087 44.6217 43.7802 43.8017C43.2517 42.9647 42.2969 41.5128 41.649 40.5391C41.0182 39.5825 40.4897 38.7455 40.4897 38.6943C40.4897 38.6601 40.7965 38.2159 41.1887 37.7376C42.3822 36.2173 43.3369 33.9626 43.6268 31.9127L43.7461 31.1098H44.5133C45.1782 31.1098 45.2635 31.144 45.2635 31.5028C45.2635 32.7155 44.0871 36.0465 43.2175 37.2593C43.03 37.5156 42.8766 37.7889 42.8766 37.8402C42.8766 37.8914 43.2346 37.9426 43.6949 37.9426C44.2405 37.9426 44.8543 38.1134 45.5704 38.4551C46.1671 38.7455 46.7127 38.9334 46.7979 38.8821C46.9514 38.7797 47.3776 37.7718 47.2924 37.7034C47.2582 37.6864 46.8661 37.4472 46.4058 37.191C45.7068 36.7981 45.6215 36.6957 45.775 36.4053C45.9966 35.9953 46.0478 35.9953 46.9684 36.3198C47.9061 36.6444 47.9061 36.6444 48.1277 36.149C48.4517 35.4316 48.3664 35.2778 47.5311 34.9533C46.474 34.5604 46.4228 34.4921 46.5592 33.9454C46.6615 33.4842 46.6786 33.4842 47.7356 33.5868C48.3153 33.655 48.8438 33.638 48.895 33.5696C48.9461 33.4842 49.0143 33.1426 49.0484 32.8181L49.0996 32.2202L48.0766 32.0494C47.2071 31.8956 47.0366 31.8102 47.0025 31.4856C46.9514 31.1269 47.0025 31.1098 48.0596 31.1098H49.1848V30.3411V29.5725H48.0766H46.9684V28.9917C46.9684 28.3425 47.0195 28.3084 48.2983 28.1205L49.0484 28.0009L48.929 27.3689C48.8609 27.0273 48.7586 26.7027 48.7074 26.6344C48.6392 26.5831 48.1789 26.6003 47.6845 26.7027C46.9343 26.8565 46.7297 26.8394 46.6104 26.6515C46.3376 26.2073 46.4569 26.0536 47.4117 25.729C47.9232 25.5582 48.3835 25.3703 48.4005 25.319C48.4347 25.2678 48.3494 24.9262 48.213 24.5845L47.9573 23.9696L47.0195 24.2941C46.4911 24.465 46.0478 24.6017 46.0307 24.5845C45.9455 24.3967 45.6045 23.5596 45.6045 23.5084C45.6045 23.4742 46.0307 23.2009 46.5592 22.9105C47.0707 22.6031 47.5481 22.2614 47.5992 22.1419C47.7015 21.8685 47.173 21.0315 46.9002 21.0315C46.7979 21.0486 46.3376 21.3048 45.8602 21.6294C45.0078 22.2101 45.0078 22.2101 44.735 21.8685C44.4792 21.5269 44.4621 21.5269 43.7461 22.176L43.013 22.8251L43.4392 23.4742C44.07 24.3967 44.8884 26.6173 45.1271 28.018C45.2465 28.6843 45.2976 29.265 45.2465 29.2992C45.1953 29.3504 44.8543 29.4358 44.4621 29.5042L43.7631 29.6066L43.6438 28.7867C43.4562 27.403 42.8936 25.6266 42.1946 24.3454L41.5468 23.1326L43.7972 21.2536C50.3953 15.7019 52.9527 13.5667 53.9586 12.7638L55.0668 11.8585L56.2603 11.9781C56.9252 12.0464 57.4537 12.0806 57.4708 12.0806C57.6924 11.8414 60.9488 6.30691 60.9488 6.1702C60.9488 5.93109 61.2045 5.87986 57.3173 7.02436L54.1462 7.96386L54.0609 8.73254C54.0097 9.15959 53.9245 9.92827 53.8564 10.4407L53.7369 11.3802L47.2582 16.7781L40.7625 22.1931L39.7225 21.2536C38.5802 20.2115 36.5343 19.1184 35.1021 18.7938C34.2156 18.5888 34.1814 18.5717 34.1814 18.008C34.1814 17.376 34.1133 17.393 35.7159 17.803C36.0398 17.8884 36.3638 17.9567 36.449 17.9567C36.5172 17.9567 36.5683 17.3418 36.5683 16.5731C36.5683 15.309 36.5343 15.1895 36.2103 15.104C35.8864 15.0186 35.8693 14.9162 35.9717 14.1133L36.074 13.208L35.3749 13.0884C34.9828 13.0201 34.6418 13.003 34.5907 13.0542C34.5565 13.0884 34.4543 13.4642 34.386 13.8742C34.3179 14.3012 34.1644 14.6258 34.045 14.6087C33.9427 14.5916 33.7211 14.5745 33.5847 14.5575C33.3972 14.5404 33.329 14.3183 33.329 13.6863V12.8322H32.5618H31.7946V13.6863C31.7946 14.3867 31.7434 14.5404 31.5047 14.5404C31.3342 14.5404 31.0274 14.5916 30.8227 14.6429C30.4817 14.7283 30.4306 14.66 30.3283 14.0621C30.1749 13.0884 30.0726 13.003 29.3394 13.1226L28.6916 13.225L28.8109 14.1133C28.9132 14.9504 28.8962 15.0186 28.5211 15.1212C27.9244 15.2749 27.9244 15.2749 27.7028 14.455C27.4641 13.6009 27.4299 13.5838 26.5945 13.9254L26.0148 14.1817L26.2535 14.7795C26.3899 15.104 26.5093 15.5482 26.5093 15.7532C26.5093 16.0435 27.2594 17.393 27.805 18.0934C27.8221 18.1275 28.5381 18.008 29.3736 17.803C31.3342 17.3418 31.3172 17.3418 31.249 17.9739C31.1978 18.4863 31.1297 18.5375 29.8339 18.9304C29.0837 19.1525 28.3506 19.3746 28.1971 19.4258C27.9926 19.4942 27.4299 18.7767 25.9978 16.556C24.9408 14.9332 23.9689 13.43 23.8325 13.225C23.5938 12.8664 23.6279 12.8322 24.5657 12.4051C26.765 11.3973 30.0385 10.6115 32.1014 10.6115H32.8175V6.76813V2.92465H31.9991H31.1637L30.9421 1.47269C30.6864 -0.201314 30.891 -0.0988522 28.4188 0.276963C27.6345 0.39655 26.9525 0.533189 26.9184 0.58442ZM39.8589 31.3832C38.87 37.1739 31.7093 39.4288 27.5834 35.2437C23.7132 31.2978 25.5374 24.7895 30.9421 23.3205C31.9139 23.0472 32.8346 23.0301 34.1133 23.2692C37.8982 23.9696 40.4897 27.6252 39.8589 31.3832Z" stroke="#8ECAE6" stroke-width="0.133333"/>
<path d="M31.6242 26.3097C29.6295 26.9589 28.4019 28.7354 28.6065 30.6656C28.8452 32.9717 30.4308 34.4236 32.7324 34.4236C33.619 34.4236 34.0964 34.3382 34.6079 34.0649C37.6085 32.4592 37.6256 28.1717 34.642 26.6343C33.8918 26.2585 32.3062 26.0877 31.6242 26.3097Z" fill="#8ECAE6"/>
<path d="M28.6065 30.6656C28.8452 32.9717 30.4308 34.4236 32.7324 34.4236C33.619 34.4236 34.0964 34.3382 34.6079 34.0649C37.6085 32.4592 37.6256 28.1717 34.642 26.6343C33.8918 26.2585 32.3062 26.0877 31.6242 26.3097C29.6295 26.9589 28.4019 28.7354 28.6065 30.6656Z" stroke="#8ECAE6" stroke-width="0.133333"/>
<path d="M42.3824 17.393L41.7005 18.1959L41.2572 17.7859C41.0355 17.5639 40.7968 17.4101 40.7627 17.4614C40.7286 17.4955 40.49 17.9738 40.2342 18.5375L39.7568 19.5283L40.507 20.1945C40.9162 20.5532 41.3083 20.8436 41.3595 20.8607C41.6493 20.8778 43.0132 19.6137 42.928 19.3916C42.8769 19.272 43.1155 18.845 43.4565 18.435C43.7975 18.0421 44.0703 17.6322 44.0703 17.5126C44.0703 17.393 43.8487 17.1368 43.5759 16.9489L43.0814 16.5902L42.3824 17.393Z" fill="#8ECAE6"/>
<path d="M41.7005 18.1959L41.2572 17.7859C41.0355 17.5639 40.7968 17.4101 40.7627 17.4614C40.7286 17.4955 40.49 17.9738 40.2342 18.5375L39.7568 19.5283L40.507 20.1945C40.9162 20.5532 41.3083 20.8436 41.3595 20.8607C41.6493 20.8778 43.0132 19.6137 42.928 19.3916C42.8769 19.272 43.1155 18.845 43.4565 18.435C43.7975 18.0421 44.0703 17.6322 44.0703 17.5126C44.0703 17.393 43.8487 17.1368 43.5759 16.9489L43.0814 16.5902L42.3824 17.393L41.7005 18.1959Z" stroke="#8ECAE6" stroke-width="0.133333"/>
<path d="M20.9515 17.8544C20.6447 18.0935 20.6447 18.1277 21.1902 18.6743C21.804 19.3234 21.8551 19.5284 21.4801 19.8359C21.2243 20.0409 21.1391 20.0067 20.0991 19.238C19.9456 19.1355 19.741 19.2038 19.4342 19.4943C19.1955 19.7163 19.0079 19.9725 19.0079 20.075C19.025 20.1775 19.3148 20.485 19.6728 20.7754L20.3207 21.2878L19.9968 21.9369L19.6728 22.586L18.8886 22.159C18.4623 21.9199 18.0532 21.7149 17.9679 21.7149C17.8827 21.7149 17.6951 21.9541 17.5587 22.2444C17.2348 22.8764 17.3541 23.0644 18.326 23.5085C19.025 23.8159 19.1273 24.0039 18.8545 24.448C18.7181 24.653 18.5646 24.653 17.7292 24.3797C17.2007 24.2089 16.7404 24.1063 16.7233 24.1405C16.604 24.3113 16.28 25.1654 16.28 25.285C16.28 25.3704 16.7404 25.5925 17.32 25.7975C18.0873 26.0879 18.326 26.2416 18.2578 26.4466C18.2066 26.5832 18.1555 26.8053 18.1555 26.959C18.1555 27.1811 17.9679 27.1982 16.9791 27.0957L15.8197 26.9761L15.7004 27.5227C15.5299 28.4452 15.564 28.4964 16.4164 28.616C17.6099 28.7868 17.8145 28.8893 17.8145 29.2309C17.8145 29.5213 17.661 29.5555 16.6722 29.6067L15.5128 29.658L15.4617 30.3754L15.4105 31.1099H16.604H17.7974L17.8997 31.9128C18.0702 33.1769 18.0532 33.1598 19.1614 33.1598H20.1673L19.9968 32.4253C19.724 31.2466 19.9286 27.7961 20.3719 26.4124C20.9345 24.6359 21.8211 23.0473 22.9633 21.8003L23.9863 20.69L23.2532 19.6992C22.4348 18.606 21.5483 17.6152 21.3948 17.6152C21.3437 17.6152 21.1391 17.7177 20.9515 17.8544Z" fill="#8ECAE6"/>
<path d="M21.1902 18.6743C21.804 19.3234 21.8551 19.5284 21.4801 19.8359C21.2243 20.0409 21.1391 20.0067 20.0991 19.238C19.9456 19.1355 19.741 19.2038 19.4342 19.4943C19.1955 19.7163 19.0079 19.9725 19.0079 20.075C19.025 20.1775 19.3148 20.485 19.6728 20.7754L20.3207 21.2878L19.9968 21.9369L19.6728 22.586L18.8886 22.159C18.4623 21.9199 18.0532 21.7149 17.9679 21.7149C17.8827 21.7149 17.6951 21.9541 17.5587 22.2444C17.2348 22.8764 17.3541 23.0644 18.326 23.5085C19.025 23.8159 19.1273 24.0039 18.8545 24.448C18.7181 24.653 18.5646 24.653 17.7292 24.3797C17.2007 24.2089 16.7404 24.1063 16.7233 24.1405C16.604 24.3113 16.28 25.1654 16.28 25.285C16.28 25.3704 16.7404 25.5925 17.32 25.7975C18.0873 26.0879 18.326 26.2416 18.2578 26.4466C18.2066 26.5832 18.1555 26.8053 18.1555 26.959C18.1555 27.1811 17.9679 27.1982 16.9791 27.0957L15.8197 26.9761L15.7004 27.5227C15.5299 28.4452 15.564 28.4964 16.4164 28.616C17.6099 28.7868 17.8145 28.8893 17.8145 29.2309C17.8145 29.5213 17.661 29.5555 16.6722 29.6067L15.5128 29.658L15.4617 30.3754L15.4105 31.1099H16.604H17.7974L17.8997 31.9128C18.0702 33.1769 18.0532 33.1598 19.1614 33.1598H20.1673L19.9968 32.4253C19.724 31.2466 19.9286 27.7961 20.3719 26.4124C20.9345 24.6359 21.8211 23.0473 22.9633 21.8003L23.9863 20.69L23.2532 19.6992C22.4348 18.606 21.5483 17.6152 21.3948 17.6152C21.3437 17.6152 21.1391 17.7177 20.9515 17.8544C20.6447 18.0935 20.6447 18.1277 21.1902 18.6743Z" stroke="#8ECAE6" stroke-width="0.133333"/>
</svg>
