<svg width="20" height="20" viewBox="0 0 20 20" fill="none" xmlns="http://www.w3.org/2000/svg">
<g clip-path="url(#clip0_1190_535)">
<path d="M11.6665 7.5C11.6665 7.94203 11.4909 8.36596 11.1783 8.67852C10.8658 8.99108 10.4419 9.16667 9.99984 9.16667H4.99984L1.6665 12.5V3.33334C1.6665 2.41667 2.4165 1.66667 3.33317 1.66667H9.99984C10.4419 1.66667 10.8658 1.84227 11.1783 2.15483C11.4909 2.46739 11.6665 2.89131 11.6665 3.33334V7.5Z" stroke="#51ADD9" stroke-width="2" stroke-linecap="round" stroke-linejoin="round"/>
<path d="M15.0002 7.5H16.6668C17.1089 7.5 17.5328 7.6756 17.8453 7.98816C18.1579 8.30072 18.3335 8.72464 18.3335 9.16667V18.3333L15.0002 15H10.0002C9.55814 15 9.13421 14.8244 8.82165 14.5118C8.50909 14.1993 8.3335 13.7754 8.3335 13.3333V12.5" stroke="#51ADD9" stroke-width="2" stroke-linecap="round" stroke-linejoin="round"/>
</g>
<defs>
<clipPath id="clip0_1190_535">
<rect width="20" height="20" fill="white"/>
</clipPath>
</defs>
</svg>
