<svg width="32" height="32" viewBox="0 0 32 32" fill="none" xmlns="http://www.w3.org/2000/svg">
<g clip-path="url(#clip0_1063_8369)">
<path d="M15.3473 32.0128H16.6817C23.9361 32.0128 27.5489 32.0128 29.7889 29.7728C32.0161 27.5328 32.0161 23.9072 32.0161 16.6784V15.3184C32.0161 8.1184 32.0161 4.4928 29.7889 2.2528C27.5489 0.0127983 23.9233 0.0127983 16.6817 0.0127983H15.3473C8.09291 0.0127983 4.48011 0.0127983 2.24011 2.2528C0.0161133 4.4928 0.0161133 8.1216 0.0161133 15.3472V16.7072C0.0161133 23.9072 0.0161133 27.5328 2.25611 29.7728C4.49611 32.0128 8.12171 32.0128 15.3473 32.0128Z" fill="#0077FF"/>
<path d="M17.0431 23.0656C9.75028 23.0656 5.59028 18.0672 5.41748 9.7472H9.07188C9.19348 15.8528 11.8847 18.4416 14.0191 18.9728V9.7472H17.4591V15.0144C19.5647 14.7872 21.7791 12.3872 22.5247 9.7472H25.9647C25.3951 12.5152 23.6991 14.9216 21.2831 16.3872C23.9807 17.728 25.9743 20.16 26.7615 23.0656H22.9759C22.2623 20.512 20.0863 18.6368 17.4559 18.304V23.0656H17.0431Z" fill="white"/>
</g>
<defs>
<clipPath id="clip0_1063_8369">
<rect width="32" height="32" fill="white"/>
</clipPath>
</defs>
</svg>
